<svg width="1160" height="600" viewBox="0 0 1160 600" fill="none" xmlns="http://www.w3.org/2000/svg">
<path d="M617.2 224.1H545.2V198H718.9V224.1H646.9V408H617.2V224.1ZM796.778 247.5C818.778 247.5 835.578 252.9 847.178 263.7C858.978 274.5 864.878 290.6 864.878 312V408H837.578V387C832.778 394.4 825.878 400.1 816.878 404.1C808.078 407.9 797.578 409.8 785.378 409.8C767.578 409.8 753.278 405.5 742.478 396.9C731.878 388.3 726.578 377 726.578 363C726.578 349 731.678 337.8 741.878 329.4C752.078 320.8 768.278 316.5 790.478 316.5H836.078V310.8C836.078 298.4 832.478 288.9 825.278 282.3C818.078 275.7 807.478 272.4 793.478 272.4C784.078 272.4 774.878 274 765.878 277.2C756.878 280.2 749.278 284.3 743.078 289.5L731.078 267.9C739.278 261.3 749.078 256.3 760.478 252.9C771.878 249.3 783.978 247.5 796.778 247.5ZM790.178 387.6C801.178 387.6 810.678 385.2 818.678 380.4C826.678 375.4 832.478 368.4 836.078 359.4V337.2H791.678C767.278 337.2 755.078 345.4 755.078 361.8C755.078 369.8 758.178 376.1 764.378 380.7C770.578 385.3 779.178 387.6 790.178 387.6ZM918.175 185.4H946.975V408H918.175V185.4ZM1063.76 333.9L1030.76 364.5V408H1001.96V185.4H1030.76V328.2L1117.46 249H1152.26L1085.36 314.7L1158.86 408H1123.46L1063.76 333.9Z" fill="#414361"/>
<circle cx="254" cy="299.5" r="254" fill="#9EB4FF"/>
<circle cx="432" cy="300" r="60" fill="#414361"/>
<path d="M75 343.301C41.6667 324.056 41.6667 275.944 75 256.699L375 83.4937C408.333 64.2486 450 88.3049 450 126.795L450 473.205C450 511.695 408.333 535.751 375 516.506L75 343.301Z" fill="#414361"/>
<rect x="47" y="158" width="100" height="367" rx="50" fill="#414361"/>
<rect x="147" y="192" width="27" height="217" rx="13.5" fill="#EAEAEA"/>
<rect x="20" y="191" width="27" height="217" rx="13.5" fill="#EAEAEA"/>
<rect x="15.9183" y="199.038" width="27" height="257.379" rx="13.5" transform="rotate(-33 15.9183 199.038)" fill="white"/>
<path d="M449.36 356.763C438.274 356.763 428.31 354.307 419.469 349.395C410.628 344.484 403.682 337.748 398.63 329.188C393.718 320.487 391.262 310.663 391.262 299.717C391.262 288.771 393.718 279.018 398.63 270.458C403.682 261.757 410.628 255.021 419.469 250.25C428.31 245.338 438.274 242.882 449.36 242.882C460.446 242.882 470.34 245.338 479.041 250.25C487.882 255.021 494.758 261.757 499.67 270.458C504.722 279.018 507.248 288.771 507.248 299.717C507.248 310.663 504.722 320.487 499.67 329.188C494.758 337.748 487.882 344.484 479.041 349.395C470.34 354.307 460.446 356.763 449.36 356.763ZM449.36 339.081C456.517 339.081 462.902 337.467 468.516 334.239C474.269 330.871 478.76 326.24 481.988 320.346C485.215 314.312 486.829 307.436 486.829 299.717C486.829 291.999 485.215 285.193 481.988 279.299C478.76 273.265 474.269 268.634 468.516 265.406C462.902 262.178 456.517 260.564 449.36 260.564C442.203 260.564 435.748 262.178 429.994 265.406C424.381 268.634 419.89 273.265 416.522 279.299C413.294 285.193 411.681 291.999 411.681 299.717C411.681 307.436 413.294 314.312 416.522 320.346C419.89 326.24 424.381 330.871 429.994 334.239C435.748 337.467 442.203 339.081 449.36 339.081Z" fill="white"/>
<path d="M335.985 299.849C335.985 301.393 335.845 303.427 335.564 305.953H245.049C246.312 315.777 250.592 323.706 257.89 329.74C265.327 335.634 274.519 338.581 285.465 338.581C298.797 338.581 309.532 334.09 317.672 325.109L328.828 338.16C323.776 344.054 317.461 348.545 309.883 351.632C302.445 354.719 294.096 356.263 284.834 356.263C273.046 356.263 262.591 353.877 253.469 349.106C244.347 344.194 237.261 337.388 232.209 328.688C227.297 319.987 224.841 310.163 224.841 299.217C224.841 288.412 227.227 278.659 231.998 269.958C236.91 261.257 243.576 254.521 251.996 249.75C260.556 244.838 270.169 242.382 280.834 242.382C291.499 242.382 300.972 244.838 309.252 249.75C317.672 254.521 324.197 261.257 328.828 269.958C333.599 278.659 335.985 288.622 335.985 299.849ZM280.834 259.433C271.151 259.433 263.012 262.38 256.416 268.274C249.961 274.168 246.172 281.886 245.049 291.429H316.619C315.496 282.027 311.637 274.378 305.042 268.484C298.586 262.45 290.517 259.433 280.834 259.433Z" fill="white"/>
</svg>
