<svg width="120" height="119" viewBox="0 0 120 119" fill="none" xmlns="http://www.w3.org/2000/svg">
<rect x="31.7157" y="90.5096" width="40" height="40" rx="10" transform="rotate(-45 31.7157 90.5096)" fill="black"/>
<rect x="62.8284" y="59.397" width="40" height="40" rx="10" transform="rotate(-45 62.8284 59.397)" fill="black"/>
<rect x="31.7157" y="28.2843" width="40" height="40" rx="10" transform="rotate(-45 31.7157 28.2843)" fill="black"/>
<rect x="0.603027" y="59.397" width="40" height="40" rx="10" transform="rotate(-45 0.603027 59.397)" fill="black"/>
<rect x="46.1127" y="90.3674" width="20" height="20" rx="5" transform="rotate(-45 46.1127 90.3674)" fill="#FDFFFC"/>
<rect x="46.1127" y="28.1421" width="20" height="20" rx="5" transform="rotate(-45 46.1127 28.1421)" fill="#FDFFFC"/>
<rect x="77.2254" y="59.2548" width="20" height="20" rx="5" transform="rotate(-45 77.2254 59.2548)" fill="#FDFFFC"/>
<rect x="15" y="59.2548" width="20" height="20" rx="5" transform="rotate(-45 15 59.2548)" fill="#FDFFFC"/>
</svg>
